<?xml version="1.0" standalone="no"?><!DOCTYPE svg PUBLIC "-//W3C//DTD SVG 1.1//EN" "http://www.w3.org/Graphics/SVG/1.1/DTD/svg11.dtd"><svg t="1571833312438" class="icon" viewBox="0 0 1024 1024" version="1.1" xmlns="http://www.w3.org/2000/svg" p-id="4819" width="48" height="48" xmlns:xlink="http://www.w3.org/1999/xlink"><defs><style type="text/css"></style></defs><path d="M364.50816001 778.00756793C500.40888889 868.17808384 685.88942222 854.8368293 805.63825778 735.8772827 941.00650667 601.41145428 941.00650667 383.32871111 805.63825778 248.80436793 670.27000889 114.28002589 450.82908445 114.28002589 315.46083556 248.80436793 195.712 367.82242589 182.34083556 552.02539634 274.57820445 686.14013953 274.10488889 686.54973952 152.30981006 803.77228402 152.30981006 803.77228402 134.19626041 821.20496242 133.98698212 849.72671432 151.84743538 867.48241919L178.52711368 894.00563029C196.38529934 911.75908693 225.59444082 911.94648349 243.63467435 894.55230976L364.50816001 778.00756793ZM357.8280539 693.78997134C245.98440392 582.55913529 245.98440392 402.18647097 357.8280539 290.89401173 469.79632014 179.66317454 651.30080712 179.66317454 763.20676637 290.89401173 875.17503261 402.18647097 875.17503261 582.55913529 763.26907449 693.78997134 651.30080712 804.95918422 469.79632014 804.95918422 357.8280539 693.78997134L357.8280539 693.78997134Z" p-id="4820" fill="#C9CEDB"></path></svg>